<svg width="32" height="32" viewBox="0 0 32 32" fill="none" xmlns="http://www.w3.org/2000/svg">
<g clip-path="url(#clip0_3969_121)">
<path d="M0.657593 31.9999H11.5069C16.6515 31.9999 20.822 27.8294 20.822 22.6848H9.97266C4.82809 22.6848 0.657593 26.8553 0.657593 31.9999Z" fill="#F22BB2"/>
<path d="M1.14282 9.31507V23.0137C6.28739 23.0137 10.4579 18.8432 10.4579 13.6986V0C5.31332 0 1.14282 4.1705 1.14282 9.31507Z" fill="#8C30F5"/>
<path d="M31.3425 0H20.4932C15.3486 0 11.1781 4.1705 11.1781 9.31507H22.0274C27.172 9.31507 31.3425 5.14457 31.3425 0Z" fill="#FE9A22"/>
<path d="M31.3424 22.1371V8.43848C26.1978 8.43848 22.0273 12.609 22.0273 17.7535V31.4522C27.1719 31.4522 31.3424 27.2817 31.3424 22.1371Z" fill="#2EC5CE"/>
</g>
<defs>
<clipPath id="clip0_3969_121">
<rect width="32" height="32" fill="white"/>
</clipPath>
</defs>
</svg>
